<svg width="328" height="328" viewBox="0 0 328 328" fill="none" xmlns="http://www.w3.org/2000/svg">
<path d="M273.333 296.111C273.333 313.723 224.379 328 164 328C103.621 328 54.6667 313.723 54.6667 296.111C54.6667 278.508 103.612 264.222 164 264.222C224.379 264.222 273.333 278.499 273.333 296.111Z" fill="#99AAB5"/>
<path d="M54.6667 287H273.333V296.111H54.6667V287Z" fill="#99AAB5"/>
<path d="M273.333 287C273.333 304.612 224.379 318.889 164 318.889C103.621 318.889 54.6667 304.612 54.6667 287C54.6667 269.388 103.612 255.111 164 255.111C224.379 255.111 273.333 269.388 273.333 287Z" fill="#E6E7E8"/>
<path d="M264.222 282.444C264.222 297.532 219.341 309.778 164 309.778C108.65 309.778 63.7778 297.542 63.7778 282.444C63.7778 267.347 108.641 255.111 164 255.111C219.35 255.111 264.222 267.347 264.222 282.444Z" fill="#FF3B3B"/>
<path d="M63.7778 72.8889H264.222V282.444H63.7778V72.8889Z" fill="#FF3B3B"/>
<path d="M264.222 209.556C264.222 227.158 219.341 241.444 164 241.444C108.65 241.444 63.7778 227.167 63.7778 209.556C63.7778 191.944 108.641 177.667 164 177.667C219.341 177.667 264.222 191.944 264.222 209.556Z" fill="#FFE32E"/>
<path d="M63.7778 91.1111H264.222V209.556H63.7778V91.1111Z" fill="#FFE32E"/>
<path d="M264.222 127.556C264.222 145.158 219.341 159.444 164 159.444C108.65 159.444 63.7869 145.167 63.7869 127.556C63.7869 109.944 108.65 95.6667 164 95.6667C219.341 95.6667 264.222 109.944 264.222 127.556Z" fill="#FF3B3B"/>
<path d="M63.7778 36.4445H264.222V127.556H63.7778V36.4445Z" fill="#FF3B3B"/>
<path d="M273.333 41C273.333 58.6118 224.379 72.8889 164 72.8889C103.621 72.8889 54.6667 58.6118 54.6667 41C54.6667 23.3882 103.621 9.11112 164 9.11112C224.379 9.11112 273.333 23.3882 273.333 41Z" fill="#99AAB5"/>
<path d="M54.6667 31.8889H273.333V41H54.6667V31.8889Z" fill="#99AAB5"/>
<path d="M273.333 31.8889C273.333 49.5007 224.379 63.7778 164 63.7778C103.621 63.7778 54.6667 49.5007 54.6667 31.8889C54.6667 14.2771 103.621 6.67572e-06 164 6.67572e-06C224.379 6.67572e-06 273.333 14.2771 273.333 31.8889Z" fill="#E6E7E8"/>
<path d="M257.389 31.8889C257.389 44.4713 215.587 54.6667 164 54.6667C112.413 54.6667 70.6111 44.4713 70.6111 31.8889C70.6111 19.3064 112.413 9.11112 164 9.11112C215.587 9.11112 257.389 19.3064 257.389 31.8889Z" fill="#CCD6DD"/>
<path d="M248.278 31.8889C248.278 41.9567 210.558 50.1111 164 50.1111C117.442 50.1111 79.7222 41.9567 79.7222 31.8889C79.7222 21.8211 117.451 13.6667 164 13.6667C210.558 13.6667 248.278 21.8211 248.278 31.8889Z" fill="#E6E7E8"/>
<path d="M218.667 31.8889C218.667 38.1756 194.194 43.2778 164 43.2778C133.806 43.2778 109.333 38.1756 109.333 31.8889C109.333 25.6022 133.806 20.5 164 20.5C194.194 20.5 218.667 25.6022 218.667 31.8889Z" fill="#CCD6DD"/>
<path d="M164 38.7222C187.902 38.7222 207.278 35.6628 207.278 31.8889C207.278 28.1149 187.902 25.0556 164 25.0556C140.098 25.0556 120.722 28.1149 120.722 31.8889C120.722 35.6628 140.098 38.7222 164 38.7222Z" fill="#E6E7E8"/>
<path d="M227.778 191.333C227.778 229.072 199.224 259.667 164 259.667C128.776 259.667 100.222 229.072 100.222 191.333C100.222 153.595 128.776 123 164 123C199.224 123 227.778 153.595 227.778 191.333Z" fill="#196212"/>
<path d="M209.556 191.333C209.556 220.088 189.156 243.403 164 243.403C138.844 243.403 118.444 220.079 118.444 191.333C118.444 162.588 138.835 139.272 164 139.272C189.165 139.272 209.556 162.579 209.556 191.333Z" fill="#58D358"/>
</svg>
