<svg width="221" height="248" viewBox="0 0 221 248" fill="none" xmlns="http://www.w3.org/2000/svg">
<path d="M220.266 235.871C220.265 233.988 219.824 232.13 218.978 230.446C218.133 228.763 216.905 227.3 215.395 226.175L201.953 216.186V119.766C201.953 100.339 194.236 81.7071 180.499 67.9701C166.762 54.233 148.13 46.5156 128.703 46.5156L147.016 7.41388L137.859 2.87696C135.014 1.46506 131.88 0.730408 128.703 0.730408C125.526 0.730408 122.393 1.46506 119.547 2.87696C116.701 4.28885 113.567 5.02351 110.391 5.02351C107.214 5.02351 104.08 4.28885 101.234 2.87696C98.3886 1.46506 95.2549 0.730408 92.0781 0.730408C88.9014 0.730408 85.7676 1.46506 82.9219 2.87696L73.7656 7.41388L92.0781 46.5156C72.651 46.5156 54.0196 54.233 40.2825 67.9701C26.5455 81.7071 18.8281 100.339 18.8281 119.766V215.906L5.3135 226.157C3.82293 227.289 2.61429 228.75 1.782 230.427C0.9497 232.103 0.516289 233.949 0.515626 235.821C0.515024 237.414 0.828417 238.992 1.4379 240.465C2.04737 241.937 2.94099 243.274 4.06767 244.401C5.19436 245.528 6.53202 246.421 8.00422 247.031C9.47642 247.64 11.0543 247.954 12.6477 247.953H208.184C211.388 247.952 214.46 246.679 216.726 244.413C218.991 242.148 220.264 239.075 220.266 235.871Z" fill="#E1CC76"/>
<path d="M215.395 226.175L201.953 216.186V119.766C201.956 109.797 199.917 99.9333 195.961 90.7831C192.005 81.6329 186.217 73.3902 178.953 66.5632C158.965 170.024 83.3385 223.231 35.7306 247.953H208.184C210.724 247.954 213.2 247.154 215.26 245.666C217.32 244.179 218.858 242.081 219.657 239.669C220.455 237.257 220.473 234.655 219.708 232.233C218.943 229.81 217.433 227.69 215.395 226.175Z" fill="#C8B566"/>
<path d="M128.703 51.0938H92.0781C90.8639 51.0938 89.6995 50.6114 88.8409 49.7528C87.9823 48.8943 87.5 47.7298 87.5 46.5156C87.5 45.3014 87.9823 44.137 88.8409 43.2784C89.6995 42.4198 90.8639 41.9375 92.0781 41.9375H128.703C129.917 41.9375 131.082 42.4198 131.94 43.2784C132.799 44.137 133.281 45.3014 133.281 46.5156C133.281 47.7298 132.799 48.8943 131.94 49.7528C131.082 50.6114 129.917 51.0938 128.703 51.0938Z" fill="#7A4321"/>
<path d="M104.402 99.4021L104.05 98.8665C98.4217 90.3863 95.8944 80.2227 96.8954 70.0941C97.8965 59.9655 102.364 50.4933 109.544 43.2789C110.183 42.6325 111 42.1911 111.891 42.0109C112.782 41.8307 113.707 41.9199 114.547 42.267C115.387 42.6142 116.105 43.2037 116.609 43.9603C117.113 44.717 117.38 45.6065 117.377 46.5156C117.387 54.0516 119.383 61.4518 123.166 67.9697C126.949 74.4875 132.383 79.8926 138.922 83.6396L147.116 88.3231L142.575 96.2753L134.38 91.5919C128.225 88.0613 122.857 83.3095 118.606 77.6284C114.354 71.9473 111.309 65.457 109.658 58.5561C106.845 64.0855 105.55 70.263 105.908 76.4568C106.265 82.6505 108.26 88.6383 111.691 93.8077L112.053 94.357L104.402 99.4021Z" fill="#7A4321"/>
<path d="M43.3073 107.176L34.4349 104.887C37.4011 93.3587 43.7676 82.9899 52.7062 75.1289L58.7722 81.9961C51.2027 88.6434 45.8132 97.4185 43.3073 107.176Z" fill="#70622A" fill-opacity="0.35"/>
<path d="M64.2385 77.7934L59.1705 70.1708C62.0538 68.2557 65.0992 66.5967 68.2718 65.2127L71.9343 73.5998C69.2512 74.7697 66.6761 76.1729 64.2385 77.7934Z" fill="#AD9C55"/>
</svg>
