<svg width="315" height="315" viewBox="0 0 315 315" fill="none" xmlns="http://www.w3.org/2000/svg">
<path d="M236.248 34.6623C236.248 38.0602 233.489 40.8146 230.096 40.8146H84.9036C81.5099 40.8146 78.7512 38.0608 78.7512 34.6623V6.1554C78.7512 2.76176 81.5099 0.00305176 84.9036 0.00305176H230.096C233.489 0.00305176 236.248 2.76176 236.248 6.1554V34.6623Z" fill="#FB6D51"/>
<path d="M236.248 26.2557L262.501 85.317V308.845C262.501 312.247 259.743 314.997 256.349 314.997H111.156C107.753 314.997 105.004 312.247 105.004 308.845V85.317L78.7512 26.2557H236.248Z" fill="#F5BA45"/>
<path d="M105.004 6.56883C108.628 6.56883 111.56 3.6274 111.56 0.00305176H98.4387C98.4387 3.6274 101.38 6.56883 105.004 6.56883Z" fill="#E8563F"/>
<path d="M131.247 6.56883C134.871 6.56883 137.813 3.6274 137.813 0.00305176H124.691C124.691 3.6274 127.623 6.56883 131.247 6.56883Z" fill="#E8563F"/>
<path d="M157.5 6.56883C161.124 6.56883 164.066 3.6274 164.066 0.00305176H150.934C150.934 3.6274 153.876 6.56883 157.5 6.56883Z" fill="#E8563F"/>
<path d="M183.753 6.56883C187.377 6.56883 190.309 3.6274 190.309 0.00305176H177.187C177.187 3.6274 180.128 6.56883 183.753 6.56883Z" fill="#E8563F"/>
<path d="M209.996 6.56883C213.62 6.56883 216.561 3.6274 216.561 0.00305176H203.44C203.44 3.6274 206.372 6.56883 209.996 6.56883Z" fill="#E8563F"/>
<path d="M78.7512 26.2557L52.4986 85.317V308.845C52.4986 312.247 55.2573 314.997 58.6509 314.997H203.844C207.247 314.997 209.996 312.247 209.996 308.845V85.317L236.248 26.2557H78.7512Z" fill="#FECD57"/>
<path d="M78.7512 26.2557L52.4986 85.317H209.996L236.248 26.2557H78.7512Z" fill="#F5BA45"/>
<path d="M183.753 196.874C183.753 225.867 160.249 249.38 131.247 249.38C102.255 249.38 78.7512 225.867 78.7512 196.874C78.7512 167.882 102.255 144.378 131.247 144.378C160.249 144.378 183.753 167.882 183.753 196.874Z" fill="#FB6D51"/>
<g opacity="0.2">
<path d="M131.247 144.378C129.027 144.378 126.835 144.518 124.691 144.787C150.588 148.017 170.621 170.112 170.621 196.874C170.621 223.655 150.588 245.736 124.691 248.966C126.835 249.236 129.027 249.38 131.247 249.38C160.249 249.38 183.753 225.867 183.753 196.874C183.753 167.882 160.249 144.378 131.247 144.378Z" fill="white"/>
</g>
<path opacity="0.1" d="M236.248 26.2557L209.996 85.317H262.501L236.248 26.2557Z" fill="black"/>
</svg>
